<svg width="25" height="25" viewBox="0 0 25 25" fill="none" xmlns="http://www.w3.org/2000/svg">
<path d="M2.95313 2.19727C2.95313 2.19727 2.67188 1.48242 3.00391 0.898438C3.33594 0.314454 4.06055 0.275391 4.39258 0.285157C4.72461 0.294923 4.89649 0.314454 5.01563 0.234376C5.13477 0.154298 5.16602 -0.0175774 5.35743 0.113282C5.54883 0.244141 5.57813 0.486329 5.59961 0.626954C5.61915 0.767579 5.58008 1.07031 5.58008 1.07031C5.58008 1.07031 5.94141 1.21875 6.29297 1.10938C6.64454 0.998048 6.81836 0.808595 7.07032 0.88086C7.32227 0.951173 7.15625 1.59375 6.91993 1.89649C6.63868 2.25977 6.37891 2.38672 6.22852 2.57813C6.07813 2.76953 6.04493 2.89453 5.83399 2.98438C5.61915 3.07227 2.95313 2.19727 2.95313 2.19727Z" fill="#FFE365"/>
<path d="M2.95313 2.19727C2.95313 2.19727 2.67188 1.48242 3.00391 0.898438C3.33594 0.314454 4.06055 0.275391 4.39258 0.285157C4.72461 0.294923 4.89649 0.314454 5.01563 0.234376C5.13477 0.154298 5.16602 -0.0175774 5.35743 0.113282C5.54883 0.244141 5.57813 0.486329 5.59961 0.626954C5.61915 0.767579 5.58008 1.07031 5.58008 1.07031C5.58008 1.07031 5.94141 1.21875 6.29297 1.10938C6.64454 0.998048 6.81836 0.808595 7.07032 0.88086C7.32227 0.951173 7.15625 1.59375 6.91993 1.89649C6.63868 2.25977 6.37891 2.38672 6.22852 2.57813C6.07813 2.76953 6.04493 2.89453 5.83399 2.98438C5.61915 3.07227 2.95313 2.19727 2.95313 2.19727Z" fill="#FFE365"/>
<path d="M3.42578 1.33203C3.54882 1.4707 3.77734 1.32227 4.04882 1.14062C4.32031 0.958984 4.63281 0.83789 4.56249 0.667968C4.49218 0.496093 4.00976 0.537109 3.74804 0.697265C3.55273 0.818359 3.26367 1.15039 3.42578 1.33203Z" fill="white"/>
<path d="M3.42578 1.33203C3.54882 1.4707 3.77734 1.32227 4.04882 1.14062C4.32031 0.958984 4.63281 0.83789 4.56249 0.667968C4.49218 0.496093 4.00976 0.537109 3.74804 0.697265C3.55273 0.818359 3.26367 1.15039 3.42578 1.33203Z" fill="white"/>
<path d="M2.06641 3.36523C2.06641 3.36523 1.59375 3.55469 1.58398 4.52148C1.57812 5.13867 2.13672 6.16406 3.97852 6.26367C6.02734 6.375 6.55469 5.42773 6.61523 4.66406C6.67578 3.89844 6.23242 3.16406 5.61914 2.85352C5.00586 2.54297 3.10352 2.69336 3.10352 2.69336L2.06641 3.36523Z" fill="#474C4F"/>
<path d="M2.06641 3.36523C2.06641 3.36523 1.59375 3.55469 1.58398 4.52148C1.57812 5.13867 2.13672 6.16406 3.97852 6.26367C6.02734 6.375 6.55469 5.42773 6.61523 4.66406C6.67578 3.89844 6.23242 3.16406 5.61914 2.85352C5.00586 2.54297 3.10352 2.69336 3.10352 2.69336L2.06641 3.36523Z" fill="#474C4F"/>
<path d="M1.78516 3.43555C1.78516 3.43555 1.69727 3.19336 1.65039 3.05273C1.625 2.97656 1.51758 2.70508 1.63867 2.5625C1.75977 2.42188 2.13086 2.68555 2.34961 2.54883C2.58398 2.40039 2.39648 1.88086 2.67578 1.72461C2.9668 1.56055 3.16602 2.19141 3.58594 2.14648C4.05078 2.09766 4.04492 1.4668 4.37695 1.45703C4.70898 1.44727 4.70117 2.1582 5.06445 2.22656C5.37695 2.28516 5.70508 1.85352 5.98242 2.06641C6.19922 2.23242 5.98047 2.62695 6.18164 2.82813C6.38281 3.0293 6.72266 2.85352 6.8418 2.99609C6.99219 3.17773 6.55273 3.76367 6.55273 3.76367L4.98633 2.61914L2.73242 2.73047L1.78516 3.43555Z" fill="#42A18E"/>
<path d="M1.78516 3.43555C1.78516 3.43555 1.69727 3.19336 1.65039 3.05273C1.625 2.97656 1.51758 2.70508 1.63867 2.5625C1.75977 2.42188 2.13086 2.68555 2.34961 2.54883C2.58398 2.40039 2.39648 1.88086 2.67578 1.72461C2.9668 1.56055 3.16602 2.19141 3.58594 2.14648C4.05078 2.09766 4.04492 1.4668 4.37695 1.45703C4.70898 1.44727 4.70117 2.1582 5.06445 2.22656C5.37695 2.28516 5.70508 1.85352 5.98242 2.06641C6.19922 2.23242 5.98047 2.62695 6.18164 2.82813C6.38281 3.0293 6.72266 2.85352 6.8418 2.99609C6.99219 3.17773 6.55273 3.76367 6.55273 3.76367L4.98633 2.61914L2.73242 2.73047L1.78516 3.43555Z" fill="#42A18E"/>
<path d="M1.58008 4.5332C1.58008 4.5332 1.66016 4.06445 2.10938 3.58398C2.51758 3.14844 3.11719 2.74414 4.1504 2.80273C5.15821 2.86133 5.85352 3.31836 6.22852 3.79883C6.56837 4.23633 6.61524 4.66211 6.61524 4.66211C6.61524 4.66211 7.12501 2.35156 4.1211 2.24805C1.19727 2.15039 1.58008 4.5332 1.58008 4.5332Z" fill="#ADD4C1"/>
<path d="M1.58008 4.5332C1.58008 4.5332 1.66016 4.06445 2.10938 3.58398C2.51758 3.14844 3.11719 2.74414 4.1504 2.80273C5.15821 2.86133 5.85352 3.31836 6.22852 3.79883C6.56837 4.23633 6.61524 4.66211 6.61524 4.66211C6.61524 4.66211 7.12501 2.35156 4.1211 2.24805C1.19727 2.15039 1.58008 4.5332 1.58008 4.5332Z" fill="#ADD4C1"/>
<path d="M11.9746 19.3477C11.9746 19.3477 12.1543 18.8301 12.3027 18.6016C12.5449 18.2285 12.7949 18.0918 12.7949 18.0918L12.8867 14.4844L11.1387 12.9727C11.1387 12.9727 8 11.4902 8.06054 11.3516C8.11523 11.2207 8.36718 11.3027 8.63281 11.4238C8.83398 11.5137 11.8887 12.6855 11.8887 12.6855L12.8535 11.7891C12.8535 11.7891 10.9375 7.91992 11 7.88086C11.0547 7.84765 11.1504 7.82422 11.2676 7.98242C11.3457 8.08789 13.6016 11.6504 13.6016 11.6504L14.7852 11.4961C14.7852 11.4961 15.4062 7.45117 15.5449 7.45703C15.7578 7.4668 15.6289 8.63476 15.5762 9.43164C15.5312 10.1055 15.3144 12.0781 15.3144 12.0781L16.1523 12.3691C16.1523 12.3691 18.9004 9.5039 18.9551 9.53906C19.0098 9.57617 19.0937 9.66992 18.9297 9.90625C18.7656 10.1426 16.8496 12.8496 16.9355 12.9434C17.0019 13.0195 17.0957 13.2012 17.1953 13.3516C17.3047 13.5156 17.793 13.7168 17.793 13.7168L20.9258 12.4043C20.9258 12.4043 21.0684 12.6172 20.7227 12.7812C20.3769 12.9453 17.7852 14.3398 17.7852 14.3398C17.7852 14.3398 18.0781 14.8437 18.0273 15.625C17.9766 16.4082 17.8008 16.7227 17.8008 16.7227C17.8008 16.7227 18.6094 17.6055 18.6719 18.3262C18.7344 19.0449 18.6133 19.7988 18.6133 19.7988L18.6309 19.9961L21.0996 21.0508C21.0996 21.0508 21.418 21.2637 21.5176 21.4102C21.6172 21.5566 22.1016 22.2812 22.4082 22.7578C22.7148 23.2344 23.1191 24.0742 23.0664 24.1289C23.0137 24.1836 22.9199 24.1797 22.7871 24.1797H14.9355L11.0098 23.5371L11.9746 19.3477Z" fill="#25836E"/>
<path d="M11.9746 19.3477C11.9746 19.3477 12.1543 18.8301 12.3027 18.6016C12.5449 18.2285 12.7949 18.0918 12.7949 18.0918L12.8867 14.4844L11.1387 12.9727C11.1387 12.9727 8 11.4902 8.06054 11.3516C8.11523 11.2207 8.36718 11.3027 8.63281 11.4238C8.83398 11.5137 11.8887 12.6855 11.8887 12.6855L12.8535 11.7891C12.8535 11.7891 10.9375 7.91992 11 7.88086C11.0547 7.84765 11.1504 7.82422 11.2676 7.98242C11.3457 8.08789 13.6016 11.6504 13.6016 11.6504L14.7852 11.4961C14.7852 11.4961 15.4062 7.45117 15.5449 7.45703C15.7578 7.4668 15.6289 8.63476 15.5762 9.43164C15.5312 10.1055 15.3144 12.0781 15.3144 12.0781L16.1523 12.3691C16.1523 12.3691 18.9004 9.50391 18.9551 9.53906C19.0098 9.57617 19.0937 9.66992 18.9297 9.90625C18.7656 10.1426 16.8496 12.8496 16.9355 12.9434C17.0019 13.0195 17.0957 13.2012 17.1953 13.3516C17.3047 13.5156 17.793 13.7168 17.793 13.7168L20.9258 12.4043C20.9258 12.4043 21.0684 12.6172 20.7227 12.7812C20.3769 12.9453 17.7852 14.3398 17.7852 14.3398C17.7852 14.3398 18.0781 14.8437 18.0273 15.625C17.9766 16.4082 17.8008 16.7227 17.8008 16.7227C17.8008 16.7227 18.6094 17.6055 18.6719 18.3262C18.7344 19.0449 18.6133 19.7988 18.6133 19.7988L18.6309 19.9961L21.0996 21.0508C21.0996 21.0508 21.418 21.2637 21.5176 21.4102C21.6172 21.5566 22.1016 22.2812 22.4082 22.7578C22.7148 23.2344 23.1191 24.0742 23.0664 24.1289C23.0137 24.1836 22.9199 24.1797 22.7871 24.1797H14.9355L11.0098 23.5371L11.9746 19.3477Z" fill="#25836E"/>
<path d="M19.9922 21.9688C19.8555 21.4902 19.6562 20.959 19.668 20.834C19.6797 20.709 20.0957 20.4746 20.0957 20.4746C20.0957 20.4746 19.4473 19.9277 19.2187 19.8496C18.9902 19.7695 18.6035 19.7578 18.6035 19.7578C18.6035 19.7578 18.6152 19.4844 18.3086 19.1328C18.0019 18.7813 17.6836 18.0293 17.6836 18.0293L17.3887 17.3457L17.082 19.0977C17.082 19.0977 17.1191 19.291 17.1152 19.416C17.1074 19.6758 16.9336 19.7344 16.9336 19.7344C16.9336 19.7344 15.3691 19.8027 15.2637 19.7441C15.1445 19.6777 14.9297 19.6406 14.9531 19.3027C14.9668 19.1094 15.1484 18.9082 15.2891 18.5605C15.3867 18.3203 15.3125 17.918 15.084 17.7129C14.8555 17.5078 14.5664 17.3242 14.5195 17.0508C14.4746 16.7773 14.6113 16.5605 14.9297 16.2207C15.248 15.8789 15.3496 15.5215 15.2637 15.1289C15.2148 14.9063 15.209 14.7402 15.2891 14.6211C15.4043 14.4531 15.5781 14.5801 15.7715 14.8301C15.9629 15.0801 16.3105 15.5723 16.5957 15.6309C16.8809 15.6895 17.1621 15.4785 17.1543 14.9473C17.1445 14.3906 17.0742 13.7852 16.6055 13.0918C16.4863 12.916 16.748 12.6035 16.748 12.6035C16.748 12.6035 18.9629 9.64063 18.9766 9.58594C18.9883 9.53125 18.8242 9.47266 18.7344 9.55274C18.6523 9.62695 16.5293 11.7695 16.1797 12.1211C15.8789 11.8652 15.5273 11.6348 15.125 11.4824C15.1172 11.4785 15.1113 11.4766 15.1113 11.4766L15.5605 7.46484C15.5605 7.46484 15.4199 7.35352 15.2891 7.72461C15.1738 8.05469 14.582 10.7246 14.4512 11.3164C14.1211 11.2754 13.7656 11.2891 13.3848 11.377C13.2949 11.3984 13.2109 11.4219 13.1289 11.4473L10.9961 7.87305C10.9961 7.87305 10.875 7.90234 11.0469 8.31445C11.1992 8.68164 12.1816 11.2422 12.3926 11.793C11.9766 12.0742 11.7031 12.4395 11.5234 12.8105C11.4922 12.8789 11.4746 12.9277 11.4746 12.9277L8.05859 11.3477C8.05859 11.3477 7.96289 11.498 8.17383 11.6289C8.36523 11.748 10.8359 13.2246 11.2832 13.498C11.1445 14.1016 11.1914 14.7051 11.1914 14.7051L11.2031 14.8887L11.4141 16.1816L11.7324 17.623C11.7324 17.623 11.877 17.8574 12.1191 17.918C12.3594 17.9785 12.5293 17.957 12.5293 17.957C12.5293 17.957 12.7168 18.1992 12.8203 18.4238C12.918 18.6387 13.0352 18.9688 12.8672 19.1621C12.6992 19.3555 12.1855 19.3301 12.1855 19.3301C12.1855 19.3301 11.6055 18.8027 11.5547 18.7754C11.5039 18.75 10.2285 18.3125 10.2285 18.3125L10.2422 18.0039C10.2422 18.0039 10.1641 17.3984 9.98437 17.0762C9.80469 16.7539 9.46875 16.5098 9.46875 16.5098C9.46875 16.5098 9.42969 15.9434 9.08203 15.7363C8.73437 15.5293 8.64453 15.4668 8.64453 15.4668C8.64453 15.4668 8.60547 14.5781 8.25781 13.8574C7.91015 13.1367 7.48437 12.4785 6.93164 10.8945C6.37695 9.31055 6.21094 8.66602 6.10742 8.06055C6.0039 7.45508 5.75586 7.03711 5.52734 6.68164C5.29492 6.32031 4.98242 5.875 4.98242 5.875C4.98242 5.875 5.29101 5.59766 5.32226 5.04492C5.34961 4.57422 4.98047 3.89258 4.03515 3.85938C3.08789 3.82617 2.67969 4.44727 2.66406 5.03711C2.65039 5.52344 3.03711 5.82227 3.03711 5.82227C3.03711 5.82227 2.51953 6.88281 2.53125 7.08984C2.54492 7.29688 2.70117 7.45899 2.76562 7.52344C2.83008 7.58789 3.125 7.86133 3.125 7.86133L3.08203 9.88672C3.08203 9.88672 3.23437 10.0801 3.65429 10.0508C4.03906 10.0234 4.24609 9.47656 4.24609 9.47656C4.24609 9.47656 4.3125 10.5625 4.4414 11.6953C4.57031 12.8281 4.94336 14.3008 4.94336 14.3008L6.47656 17.457L6.1289 20.3164L6.62695 23.2148C6.62695 23.2148 6.57422 24.0078 6.64844 24.1465C6.6875 24.2207 6.79492 24.2129 6.88476 24.2129C6.97461 24.2129 15.5898 24.1836 15.5898 24.1836C15.5898 24.1836 15.4316 23.8652 15.0801 23.7852C14.7266 23.7051 14.4766 23.8184 14.3516 23.6367C14.2266 23.4551 14.6465 22.9883 14.7148 22.9199C14.7832 22.8516 17.627 19.8359 17.627 19.8359C17.627 19.8359 18.0371 19.7559 18.1621 19.9961C18.2871 20.2344 18.0254 20.8613 18.1387 21.4863C18.252 22.1113 18.5937 24.1836 18.5937 24.1836H20.7207C20.7207 24.1836 20.1289 22.4473 19.9922 21.9688Z" fill="#42A18E"/>
<path d="M19.9922 21.9688C19.8555 21.4902 19.6562 20.959 19.668 20.834C19.6797 20.709 20.0957 20.4746 20.0957 20.4746C20.0957 20.4746 19.4473 19.9277 19.2187 19.8496C18.9902 19.7695 18.6035 19.7578 18.6035 19.7578C18.6035 19.7578 18.6152 19.4844 18.3086 19.1328C18.0019 18.7813 17.6836 18.0293 17.6836 18.0293L17.3887 17.3457L17.082 19.0977C17.082 19.0977 17.1191 19.291 17.1152 19.416C17.1074 19.6758 16.9336 19.7344 16.9336 19.7344C16.9336 19.7344 15.3691 19.8027 15.2637 19.7441C15.1445 19.6777 14.9297 19.6406 14.9531 19.3027C14.9668 19.1094 15.1484 18.9082 15.2891 18.5605C15.3867 18.3203 15.3125 17.918 15.084 17.7129C14.8555 17.5078 14.5664 17.3242 14.5195 17.0508C14.4746 16.7773 14.6113 16.5605 14.9297 16.2207C15.248 15.8789 15.3496 15.5215 15.2637 15.1289C15.2148 14.9063 15.209 14.7402 15.2891 14.6211C15.4043 14.4531 15.5781 14.5801 15.7715 14.8301C15.9629 15.0801 16.3105 15.5723 16.5957 15.6309C16.8809 15.6895 17.1621 15.4785 17.1543 14.9473C17.1445 14.3906 17.0742 13.7852 16.6055 13.0918C16.4863 12.916 16.748 12.6035 16.748 12.6035C16.748 12.6035 18.9629 9.64063 18.9766 9.58594C18.9883 9.53125 18.8242 9.47266 18.7344 9.55274C18.6523 9.62695 16.5293 11.7695 16.1797 12.1211C15.8789 11.8652 15.5273 11.6348 15.125 11.4824C15.1172 11.4785 15.1113 11.4766 15.1113 11.4766L15.5605 7.46484C15.5605 7.46484 15.4199 7.35352 15.2891 7.72461C15.1738 8.05469 14.582 10.7246 14.4512 11.3164C14.1211 11.2754 13.7656 11.2891 13.3848 11.377C13.2949 11.3984 13.2109 11.4219 13.1289 11.4473L10.9961 7.87305C10.9961 7.87305 10.875 7.90234 11.0469 8.31445C11.1992 8.68164 12.1816 11.2422 12.3926 11.793C11.9766 12.0742 11.7031 12.4395 11.5234 12.8105C11.4922 12.8789 11.4746 12.9277 11.4746 12.9277L8.05859 11.3477C8.05859 11.3477 7.96289 11.498 8.17383 11.6289C8.36523 11.748 10.8359 13.2246 11.2832 13.498C11.1445 14.1016 11.1914 14.7051 11.1914 14.7051L11.2031 14.8887L11.4141 16.1816L11.7324 17.623C11.7324 17.623 11.877 17.8574 12.1191 17.918C12.3594 17.9785 12.5293 17.957 12.5293 17.957C12.5293 17.957 12.7168 18.1992 12.8203 18.4238C12.918 18.6387 13.0352 18.9688 12.8672 19.1621C12.6992 19.3555 12.1855 19.3301 12.1855 19.3301C12.1855 19.3301 11.6055 18.8027 11.5547 18.7754C11.5039 18.75 10.2285 18.3125 10.2285 18.3125L10.2422 18.0039C10.2422 18.0039 10.1641 17.3984 9.98437 17.0762C9.80469 16.7539 9.46875 16.5098 9.46875 16.5098C9.46875 16.5098 9.42969 15.9434 9.08203 15.7363C8.73437 15.5293 8.64453 15.4668 8.64453 15.4668C8.64453 15.4668 8.60547 14.5781 8.25781 13.8574C7.91015 13.1367 7.48437 12.4785 6.93164 10.8945C6.37695 9.31055 6.21094 8.66602 6.10742 8.06055C6.0039 7.45508 5.75586 7.03711 5.52734 6.68164C5.29492 6.32031 4.98242 5.875 4.98242 5.875C4.98242 5.875 5.29101 5.59766 5.32226 5.04492C5.34961 4.57422 4.98047 3.89258 4.03515 3.85938C3.08789 3.82617 2.67969 4.44727 2.66406 5.03711C2.65039 5.52344 3.03711 5.82227 3.03711 5.82227C3.03711 5.82227 2.51953 6.88281 2.53125 7.08984C2.54492 7.29688 2.70117 7.45899 2.76562 7.52344C2.83008 7.58789 3.125 7.86133 3.125 7.86133L3.08203 9.88672C3.08203 9.88672 3.23437 10.0801 3.65429 10.0508C4.03906 10.0234 4.24609 9.47656 4.24609 9.47656C4.24609 9.47656 4.3125 10.5625 4.4414 11.6953C4.57031 12.8281 4.94336 14.3008 4.94336 14.3008L6.47656 17.457L6.1289 20.3164L6.62695 23.2148C6.62695 23.2148 6.57422 24.0078 6.64844 24.1465C6.6875 24.2207 6.79492 24.2129 6.88476 24.2129C6.97461 24.2129 15.5898 24.1836 15.5898 24.1836C15.5898 24.1836 15.4316 23.8652 15.0801 23.7852C14.7266 23.7051 14.4766 23.8184 14.3516 23.6367C14.2266 23.4551 14.6465 22.9883 14.7148 22.9199C14.7832 22.8516 17.627 19.8359 17.627 19.8359C17.627 19.8359 18.0371 19.7559 18.1621 19.9961C18.2871 20.2344 18.0254 20.8613 18.1387 21.4863C18.252 22.1113 18.5937 24.1836 18.5937 24.1836H20.7207C20.7207 24.1836 20.1289 22.4473 19.9922 21.9688Z" fill="#42A18E"/>
<path d="M11.2266 14.6836C11.2266 14.6836 8.75977 15.6426 8.82422 15.8223C8.88868 16.002 11.3867 15.5078 11.3867 15.5078L11.2266 14.6836ZM11.4141 16.1836C11.3731 16.1504 9.63672 17.6973 9.71485 17.7871C9.81641 17.9043 11.6719 17.0273 11.6719 17.0273L11.4141 16.1836Z" fill="#42A18E"/>
<path d="M11.2266 14.6836C11.2266 14.6836 8.75977 15.6426 8.82422 15.8223C8.88868 16.002 11.3867 15.5078 11.3867 15.5078L11.2266 14.6836ZM11.4141 16.1836C11.3731 16.1504 9.63672 17.6973 9.71485 17.7871C9.81641 17.9043 11.6719 17.0273 11.6719 17.0273L11.4141 16.1836Z" fill="#42A18E"/>
<path d="M3.60547 5.04688C3.55078 4.98242 3.35938 4.91797 3.38672 4.76367C3.41407 4.60742 3.58789 4.49023 3.95313 4.50781C4.31836 4.52539 4.69531 4.84375 4.87696 5.12891C4.95508 5.25 4.97657 5.6582 4.80469 5.74219C4.62891 5.82227 3.60547 5.04688 3.60547 5.04688Z" fill="#25836E"/>
<path d="M3.60547 5.04688C3.55078 4.98242 3.35938 4.91797 3.38672 4.76367C3.41407 4.60742 3.58789 4.49023 3.95313 4.50781C4.31836 4.52539 4.69531 4.84375 4.87696 5.12891C4.95508 5.25 4.97657 5.6582 4.80469 5.74219C4.62891 5.82227 3.60547 5.04688 3.60547 5.04688Z" fill="#25836E"/>
<path d="M4.30079 6.27149C4.3379 6.41797 4.30274 6.86328 4.36524 7.19531C4.43946 7.58984 4.59375 7.78125 4.79493 7.77149C5.23438 7.75391 5.02539 6.22656 4.96094 6.04492C4.89649 5.86133 4.57618 5.40039 4.35547 5.19922C4.25977 5.11133 3.58399 4.83008 3.49414 4.90625C3.38672 5 3.4336 5.23242 3.86914 5.61133C4.17383 5.875 4.30079 6.27149 4.30079 6.27149ZM3.60547 5.75C3.62305 5.96094 3.41407 5.98828 3.41407 5.98828C3.41407 5.98828 3.50586 6.10742 3.45899 6.24414C3.41407 6.38086 3.13868 6.44531 3.13868 6.44531C3.13868 6.44531 3.25391 6.51367 3.21875 6.62109C3.16211 6.80274 2.9668 6.7832 2.79883 6.9043C2.68165 6.99023 2.54688 7.19141 2.54688 7.19141C2.54688 7.19141 2.33204 6.96094 2.42383 6.50977C2.48633 6.20117 2.59571 5.73047 2.69922 5.64063C2.98243 5.39258 3.58204 5.49414 3.60547 5.75ZM2.9004 7.68164C2.9004 7.68164 2.9375 7.25977 3.22071 7.0957C3.55079 6.9043 3.67774 7.10547 3.72461 7.15039C3.77149 7.19531 3.70704 9.20117 3.6875 9.33008C3.66993 9.45898 3.39844 10.0449 3.15235 9.94336C2.9043 9.8418 2.87305 9.02734 2.88282 8.52344C2.89063 8.01953 2.9004 7.68164 2.9004 7.68164ZM21.1211 24.1797C21.1582 24.2168 21.25 24.209 21.3184 24.1797C21.3867 24.1504 21.5996 23.1191 21.5664 22.2676C21.5371 21.4941 21.4766 21.375 21.4766 21.375C21.4766 21.375 21.1504 20.9492 20.6445 20.5117C20.2051 20.1328 19.2031 19.8008 19.1992 19.8418C19.1895 19.9512 19.8145 20.3594 20.207 21.25C20.5625 22.0566 20.8438 23.0098 20.9141 23.3262C20.9824 23.6445 21.0723 24.1309 21.1211 24.1797ZM17.5918 16.7852C17.6016 16.834 17.4941 17.1035 17.5215 17.3965C17.5508 17.7227 17.7344 18.082 17.7246 18.1113C17.7148 18.1406 17.5957 18.1797 17.4766 18.4883C17.3574 18.7949 17.4551 19.2891 17.3516 19.2949C17.0293 19.3125 16.4805 18.4902 16.5313 17.6387C16.6094 16.3496 17.5918 16.7852 17.5918 16.7852ZM17.1211 15.0273C17.1973 15.0039 17.2402 15.3457 17.0762 15.457C16.9141 15.5703 16.5605 15.4902 16.4121 15.3008C16.1719 14.9961 14.8828 12.1387 12.6191 13.373C11.8242 13.8066 11.6152 14.5723 11.6016 15.4297C11.5859 16.4668 11.877 17.6035 11.8438 17.666C11.7813 17.7793 11.6738 17.5469 11.5918 17.3145C11.5039 17.0703 11.2871 16.2871 11.2852 15.3047C11.2832 14.3809 11.5645 13.3926 12.543 12.9219C14.959 11.7578 16.4473 14.4238 16.5488 14.6484C16.6504 14.875 16.832 15.1152 17.1211 15.0273ZM4.98243 8.69922C4.78125 8.77539 4.8086 11.877 4.73633 13.4082C4.73633 13.4141 4.82422 13.9785 5.03516 14.7324C5.27735 15.5938 6.17774 18.1406 6.14649 18.3535C6.11329 18.5664 5.56641 19.791 5.46875 20.0859C5.3711 20.3789 5.25391 20.6992 5.36914 21.0723C5.42579 21.2578 5.53516 21.375 5.53516 21.375C5.53516 21.375 5.19336 22.1738 5.27344 22.582C5.35547 22.9902 5.72852 23.1719 6.11524 23.2676C6.36329 23.3301 6.82422 23.2344 6.75977 22.9746C6.69532 22.7129 6.27735 21.6621 6.375 21.125C6.48633 20.5137 6.61329 20.0371 6.77735 19.6133C6.94141 19.1895 7.9043 16.8398 8.13282 16.5117C8.36133 16.1855 8.83594 16.2305 8.86719 16.1016C8.90039 15.9707 7.89063 15.3555 7.35157 14.8984C6.8125 14.4414 6.34766 13.9063 6.34766 13.834C6.34375 13.6797 6.41407 11.2793 6.31641 10.9688C6.21875 10.6582 5.94727 10.0195 5.6211 9.47266C5.33789 9.00391 5.19532 8.61719 4.98243 8.69922Z" fill="#ADD4C1"/>
<path d="M4.30079 6.27149C4.3379 6.41797 4.30274 6.86328 4.36524 7.19531C4.43946 7.58984 4.59375 7.78125 4.79493 7.77149C5.23438 7.75391 5.02539 6.22656 4.96094 6.04492C4.89649 5.86133 4.57618 5.40039 4.35547 5.19922C4.25977 5.11133 3.58399 4.83008 3.49414 4.90625C3.38672 5 3.4336 5.23242 3.86914 5.61133C4.17383 5.875 4.30079 6.27149 4.30079 6.27149ZM3.60547 5.75C3.62305 5.96094 3.41407 5.98828 3.41407 5.98828C3.41407 5.98828 3.50586 6.10742 3.45899 6.24414C3.41407 6.38086 3.13868 6.44531 3.13868 6.44531C3.13868 6.44531 3.25391 6.51367 3.21875 6.62109C3.16211 6.80274 2.9668 6.7832 2.79883 6.9043C2.68165 6.99023 2.54688 7.19141 2.54688 7.19141C2.54688 7.19141 2.33204 6.96094 2.42383 6.50977C2.48633 6.20117 2.59571 5.73047 2.69922 5.64063C2.98243 5.39258 3.58204 5.49414 3.60547 5.75ZM2.9004 7.68164C2.9004 7.68164 2.9375 7.25977 3.22071 7.0957C3.55079 6.9043 3.67774 7.10547 3.72461 7.15039C3.77149 7.19531 3.70704 9.20117 3.6875 9.33008C3.66993 9.45898 3.39844 10.0449 3.15235 9.94336C2.9043 9.8418 2.87305 9.02734 2.88282 8.52344C2.89063 8.01953 2.9004 7.68164 2.9004 7.68164ZM21.1211 24.1797C21.1582 24.2168 21.25 24.209 21.3184 24.1797C21.3867 24.1504 21.5996 23.1191 21.5664 22.2676C21.5371 21.4941 21.4766 21.375 21.4766 21.375C21.4766 21.375 21.1504 20.9492 20.6445 20.5117C20.2051 20.1328 19.2031 19.8008 19.1992 19.8418C19.1895 19.9512 19.8145 20.3594 20.207 21.25C20.5625 22.0566 20.8438 23.0098 20.9141 23.3262C20.9824 23.6445 21.0723 24.1309 21.1211 24.1797ZM17.5918 16.7852C17.6016 16.834 17.4941 17.1035 17.5215 17.3965C17.5508 17.7227 17.7344 18.082 17.7246 18.1113C17.7148 18.1406 17.5957 18.1797 17.4766 18.4883C17.3574 18.7949 17.4551 19.2891 17.3516 19.2949C17.0293 19.3125 16.4805 18.4902 16.5313 17.6387C16.6094 16.3496 17.5918 16.7852 17.5918 16.7852ZM17.1211 15.0273C17.1973 15.0039 17.2402 15.3457 17.0762 15.457C16.9141 15.5703 16.5605 15.4902 16.4121 15.3008C16.1719 14.9961 14.8828 12.1387 12.6191 13.373C11.8242 13.8066 11.6152 14.5723 11.6016 15.4297C11.5859 16.4668 11.877 17.6035 11.8438 17.666C11.7813 17.7793 11.6738 17.5469 11.5918 17.3145C11.5039 17.0703 11.2871 16.2871 11.2852 15.3047C11.2832 14.3809 11.5645 13.3926 12.543 12.9219C14.959 11.7578 16.4473 14.4238 16.5488 14.6484C16.6504 14.875 16.832 15.1152 17.1211 15.0273ZM4.98243 8.69922C4.78125 8.77539 4.8086 11.877 4.73633 13.4082C4.73633 13.4141 4.82422 13.9785 5.03516 14.7324C5.27735 15.5938 6.17774 18.1406 6.14649 18.3535C6.11329 18.5664 5.56641 19.791 5.46875 20.0859C5.3711 20.3789 5.25391 20.6992 5.36914 21.0723C5.42579 21.2578 5.53516 21.375 5.53516 21.375C5.53516 21.375 5.19336 22.1738 5.27344 22.582C5.35547 22.9902 5.72852 23.1719 6.11524 23.2676C6.36329 23.3301 6.82422 23.2344 6.75977 22.9746C6.69532 22.7129 6.27735 21.6621 6.375 21.125C6.48633 20.5137 6.61329 20.0371 6.77735 19.6133C6.94141 19.1895 7.9043 16.8398 8.13282 16.5117C8.36133 16.1855 8.83594 16.2305 8.86719 16.1016C8.90039 15.9707 7.89063 15.3555 7.35157 14.8984C6.8125 14.4414 6.34766 13.9063 6.34766 13.834C6.34375 13.6797 6.41407 11.2793 6.31641 10.9688C6.21875 10.6582 5.94727 10.0195 5.6211 9.47266C5.33789 9.00391 5.19532 8.61719 4.98243 8.69922Z" fill="#ADD4C1"/>
<path d="M8.51172 17.959C8.43359 17.8984 8.0625 18.0625 7.77148 19.0176C7.52344 19.834 7.24609 21.3184 7.63086 21.3047C7.82227 21.2988 8.1543 20.459 8.45508 20.0117C8.69336 19.6563 8.98047 19.2813 8.96094 19.1211C8.94141 18.9609 8.47266 19.0469 8.48242 18.8027C8.49805 18.4531 8.59766 18.0254 8.51172 17.959ZM16.6562 22.709C16.2012 22.375 15.9844 22.3203 15.9844 22.3203C15.9844 22.3203 16.3633 21.7324 16.752 21.2695C17.1406 20.8047 18.0488 19.916 18.0215 19.8105C17.9922 19.707 17.3594 19.584 16.043 19.6113C14.7266 19.6406 13.7793 19.6973 13.5918 19.6582C13.4023 19.6211 12.9473 19.2324 12.5508 19.1758C12.1523 19.1191 11.9824 19.082 11.9824 19.082C11.9824 19.082 11.8301 18.8457 11.168 18.5234C10.6953 18.2949 10.373 18.2402 10.373 18.2402C10.373 18.2402 10.3223 17.998 10.248 17.9238C10.2109 17.8867 9.92969 18.2188 9.74609 18.5371C9.5625 18.8555 9.46484 19.1875 9.39844 19.2832C9.33203 19.3789 9.18359 19.4609 8.58594 20.4277C7.98828 21.3945 7.43359 22.627 7.16797 23.3516C6.90234 24.0742 6.88477 24.2148 6.88477 24.2148L7.50781 24.209C7.50781 24.209 7.5957 23.5 8.03125 22.4453C8.4668 21.3887 8.93945 20.7031 8.99023 20.7324C9.04102 20.7617 8.70508 22.2227 8.51367 22.7109C8.32227 23.1973 7.84375 24.2109 7.84375 24.2109H9.2207C9.2207 24.2109 10.2949 22.9766 11.2031 22.1426C12.1113 21.3086 13.1562 20.6719 13.6445 20.4414C14.1309 20.2129 14.5645 20.0996 14.5703 20.1875C14.5762 20.2754 13.1445 21.1406 12.5234 21.6719C11.9043 22.2031 10.0254 24.207 10.0254 24.207L11.9141 24.2031C11.9141 24.2031 12.3711 23.2285 12.7031 22.6836C13.0352 22.1367 13.4629 21.5332 13.5371 21.5254C13.6113 21.5176 13.3223 22.5273 13.0547 23.1641C12.7676 23.8457 12.5449 24.2031 12.5449 24.2031L13.6484 24.1973C13.6484 24.1973 14.0762 22.9785 14.3633 22.2031C14.6504 21.4277 14.8574 20.6914 14.9238 20.6328C14.9902 20.5742 15.6699 20.3887 16.0762 20.248C16.4824 20.1074 16.8516 19.9238 16.918 19.9902C16.9844 20.0566 15.6641 21.6074 15.3047 22.0742C14.9043 22.5918 14.1855 23.3691 14.3086 23.4727C14.4316 23.5762 14.7148 23.2168 15.2461 23.2637C15.7773 23.3105 16.6465 24.1895 16.6465 24.1895L18.0547 24.1914C18.0547 24.1855 17.207 23.1133 16.6562 22.709ZM10.623 19.5371C11.2441 18.7539 11.5293 18.832 11.5293 18.832C11.5293 18.832 11.5996 19.25 11.043 19.8496C10.5449 20.3848 9.87695 20.9844 9.82422 20.8965C9.77344 20.8145 10.1309 20.1582 10.623 19.5371ZM11.0937 21.7461C10.832 21.957 9.44141 22.8496 9.35742 22.7168C9.28906 22.6094 10.2656 21.4551 10.8047 21.1055C11.3437 20.7559 13.3184 20.2773 13.3633 20.3691C13.4004 20.4512 11.3867 21.5117 11.0937 21.7461ZM14.5234 14.8125C14.0918 14.834 13.9238 15.1172 13.7227 15.0879C13.5879 15.0684 13.1133 14.6035 13.1484 14.377C13.1816 14.166 13.4473 14.0625 13.8594 14.0625C14.168 14.0625 14.2949 14.1523 14.457 14.248C14.5703 14.3164 14.6035 14.1035 14.5137 14.0137C14.3437 13.8438 14.1016 13.7637 13.7109 13.7441C13.3223 13.7266 13.1445 13.832 12.7754 13.7773C12.6621 14.0117 12.541 14.0742 12.3711 14.2793C12.2109 14.4707 12.1172 14.5801 11.9746 14.8945C11.8613 15.1445 11.8477 15.5059 11.9902 15.4688C12.1328 15.4316 12.1484 15.082 12.2129 14.9355C12.3535 14.6172 12.4824 14.6016 12.6113 14.6445C12.6836 14.668 12.7305 14.8867 12.6758 15.0332C12.6504 15.0996 12.5664 15.1563 12.4824 15.3008C12.3477 15.5293 12.4023 15.6426 12.3203 15.8672C12.2715 16 12.0937 16.2266 12.1191 16.457C12.1602 16.8457 12.25 16.9121 12.3203 17.1113C12.3945 17.3184 12.4414 17.5645 12.5879 17.6133C12.7441 17.666 12.8555 17.3789 13.1699 17.2578C13.623 17.082 13.8301 17.1699 14.043 17.0332C14.3301 16.8496 14.498 16.4199 14.707 16.2227C15.0391 15.9082 15.3652 15.6152 15.3457 15.3164C15.3262 14.957 14.9551 14.791 14.5234 14.8125ZM13.3027 16.6563C13.084 16.7676 12.8164 16.9199 12.7207 16.7539C12.6074 16.5566 12.6797 16.252 12.6797 16.252C12.6797 16.252 12.6641 16.0273 12.6641 15.9121C12.6641 15.6953 12.6855 15.4199 12.8184 15.3945C12.9473 15.3711 13.4082 15.4512 13.4648 15.5801C13.5508 15.7754 13.4551 15.9004 13.4551 15.9004C13.4551 15.9004 13.748 15.9277 13.7793 16.1699C13.8145 16.4277 13.5977 16.5059 13.3027 16.6563Z" fill="#ADD4C1"/>
<path d="M8.51172 17.959C8.43359 17.8984 8.0625 18.0625 7.77148 19.0176C7.52344 19.834 7.24609 21.3184 7.63086 21.3047C7.82227 21.2988 8.1543 20.459 8.45508 20.0117C8.69336 19.6563 8.98047 19.2813 8.96094 19.1211C8.94141 18.9609 8.47266 19.0469 8.48242 18.8027C8.49805 18.4531 8.59766 18.0254 8.51172 17.959ZM16.6563 22.709C16.2012 22.375 15.9844 22.3203 15.9844 22.3203C15.9844 22.3203 16.3633 21.7324 16.752 21.2695C17.1406 20.8047 18.0488 19.916 18.0215 19.8105C17.9922 19.707 17.3594 19.584 16.043 19.6113C14.7266 19.6406 13.7793 19.6973 13.5918 19.6582C13.4023 19.6211 12.9473 19.2324 12.5508 19.1758C12.1523 19.1191 11.9824 19.082 11.9824 19.082C11.9824 19.082 11.8301 18.8457 11.168 18.5234C10.6953 18.2949 10.373 18.2402 10.373 18.2402C10.373 18.2402 10.3223 17.998 10.248 17.9238C10.2109 17.8867 9.92969 18.2188 9.74609 18.5371C9.5625 18.8555 9.46484 19.1875 9.39844 19.2832C9.33203 19.3789 9.18359 19.4609 8.58594 20.4277C7.98828 21.3945 7.43359 22.627 7.16797 23.3516C6.90234 24.0742 6.88477 24.2148 6.88477 24.2148L7.50781 24.209C7.50781 24.209 7.5957 23.5 8.03125 22.4453C8.4668 21.3887 8.93945 20.7031 8.99023 20.7324C9.04102 20.7617 8.70508 22.2227 8.51367 22.7109C8.32227 23.1973 7.84375 24.2109 7.84375 24.2109H9.2207C9.2207 24.2109 10.2949 22.9766 11.2031 22.1426C12.1113 21.3086 13.1563 20.6719 13.6445 20.4414C14.1309 20.2129 14.5645 20.0996 14.5703 20.1875C14.5762 20.2754 13.1445 21.1406 12.5234 21.6719C11.9043 22.2031 10.0254 24.207 10.0254 24.207L11.9141 24.2031C11.9141 24.2031 12.3711 23.2285 12.7031 22.6836C13.0352 22.1367 13.4629 21.5332 13.5371 21.5254C13.6113 21.5176 13.3223 22.5273 13.0547 23.1641C12.7676 23.8457 12.5449 24.2031 12.5449 24.2031L13.6484 24.1973C13.6484 24.1973 14.0762 22.9785 14.3633 22.2031C14.6504 21.4277 14.8574 20.6914 14.9238 20.6328C14.9902 20.5742 15.6699 20.3887 16.0762 20.248C16.4824 20.1074 16.8516 19.9238 16.918 19.9902C16.9844 20.0566 15.6641 21.6074 15.3047 22.0742C14.9043 22.5918 14.1855 23.3691 14.3086 23.4727C14.4316 23.5762 14.7148 23.2168 15.2461 23.2637C15.7773 23.3105 16.6465 24.1895 16.6465 24.1895L18.0547 24.1914C18.0547 24.1855 17.207 23.1133 16.6563 22.709ZM10.623 19.5371C11.2441 18.7539 11.5293 18.832 11.5293 18.832C11.5293 18.832 11.5996 19.25 11.043 19.8496C10.5449 20.3848 9.87695 20.9844 9.82422 20.8965C9.77344 20.8145 10.1309 20.1582 10.623 19.5371ZM11.0938 21.7461C10.832 21.957 9.44141 22.8496 9.35742 22.7168C9.28906 22.6094 10.2656 21.4551 10.8047 21.1055C11.3438 20.7559 13.3184 20.2773 13.3633 20.3691C13.4004 20.4512 11.3867 21.5117 11.0938 21.7461ZM14.5234 14.8125C14.0918 14.834 13.9238 15.1172 13.7227 15.0879C13.5879 15.0684 13.1133 14.6035 13.1484 14.377C13.1816 14.166 13.4473 14.0625 13.8594 14.0625C14.168 14.0625 14.2949 14.1523 14.457 14.248C14.5703 14.3164 14.6035 14.1035 14.5137 14.0137C14.3438 13.8438 14.1016 13.7637 13.7109 13.7441C13.3223 13.7266 13.1445 13.832 12.7754 13.7773C12.6621 14.0117 12.541 14.0742 12.3711 14.2793C12.2109 14.4707 12.1172 14.5801 11.9746 14.8945C11.8613 15.1445 11.8477 15.5059 11.9902 15.4688C12.1328 15.4316 12.1484 15.082 12.2129 14.9355C12.3535 14.6172 12.4824 14.6016 12.6113 14.6445C12.6836 14.668 12.7305 14.8867 12.6758 15.0332C12.6504 15.0996 12.5664 15.1563 12.4824 15.3008C12.3477 15.5293 12.4023 15.6426 12.3203 15.8672C12.2715 16 12.0938 16.2266 12.1191 16.457C12.1602 16.8457 12.25 16.9121 12.3203 17.1113C12.3945 17.3184 12.4414 17.5645 12.5879 17.6133C12.7441 17.666 12.8555 17.3789 13.1699 17.2578C13.623 17.082 13.8301 17.1699 14.043 17.0332C14.3301 16.8496 14.498 16.4199 14.707 16.2227C15.0391 15.9082 15.3652 15.6152 15.3457 15.3164C15.3262 14.957 14.9551 14.791 14.5234 14.8125ZM13.3027 16.6563C13.084 16.7676 12.8164 16.9199 12.7207 16.7539C12.6074 16.5566 12.6797 16.252 12.6797 16.252C12.6797 16.252 12.6641 16.0273 12.6641 15.9121C12.6641 15.6953 12.6855 15.4199 12.8184 15.3945C12.9473 15.3711 13.4082 15.4512 13.4648 15.5801C13.5508 15.7754 13.4551 15.9004 13.4551 15.9004C13.4551 15.9004 13.748 15.9277 13.7793 16.1699C13.8145 16.4277 13.5977 16.5059 13.3027 16.6563Z" fill="#ADD4C1"/>
<path d="M13.4004 16.0586C13.3145 16.0352 13.2402 16.0918 13.125 16.1641C13.0293 16.2246 12.9453 16.2891 12.9199 16.3555C12.875 16.4766 13.0156 16.584 13.2871 16.4297C13.5254 16.291 13.5156 16.0898 13.4004 16.0586Z" fill="#ADD4C1"/>
<path d="M13.4004 16.0586C13.3145 16.0352 13.2402 16.0918 13.125 16.1641C13.0293 16.2246 12.9453 16.2891 12.9199 16.3555C12.875 16.4766 13.0156 16.584 13.2871 16.4297C13.5254 16.291 13.5156 16.0898 13.4004 16.0586Z" fill="#ADD4C1"/>
<path d="M16.8301 14.4141C16.8555 14.4531 16.875 14.4844 16.8867 14.5078C17.0352 14.7949 17.3066 15.0117 17.3906 14.9141C17.4512 14.8437 17.3613 14.543 17.2422 14.2422L16.8301 14.4141ZM16.4609 12.9551C15.9355 12.3574 15.0371 11.6738 13.8008 11.7285C11.8555 11.8145 11.3418 13.6523 11.5469 13.7051C11.6953 13.7441 11.918 12.4668 13.8203 12.4102C14.6699 12.3848 15.4531 12.9141 16.0176 13.4531L16.4609 12.9551ZM16.9238 13.5684C16.877 13.4961 16.8047 13.3887 16.7109 13.2656L16.248 13.6914C16.4102 13.8652 16.5488 14.0312 16.6543 14.1699L17.0918 13.8984C17.0234 13.7461 16.9609 13.623 16.9238 13.5684Z" fill="#484A4E"/>
<path d="M16.8301 14.4141C16.8555 14.4531 16.875 14.4844 16.8867 14.5078C17.0352 14.7949 17.3066 15.0117 17.3906 14.9141C17.4512 14.8437 17.3613 14.543 17.2422 14.2422L16.8301 14.4141ZM16.4609 12.9551C15.9355 12.3574 15.0371 11.6738 13.8008 11.7285C11.8555 11.8145 11.3418 13.6523 11.5469 13.7051C11.6953 13.7441 11.918 12.4668 13.8203 12.4102C14.6699 12.3848 15.4531 12.9141 16.0176 13.4531L16.4609 12.9551ZM16.9238 13.5684C16.877 13.4961 16.8047 13.3887 16.7109 13.2656L16.248 13.6914C16.4102 13.8652 16.5488 14.0312 16.6543 14.1699L17.0918 13.8984C17.0234 13.7461 16.9609 13.623 16.9238 13.5684Z" fill="#484A4E"/>
<path d="M17.5273 13.916L20.9199 12.4063C20.9199 12.4063 20.8574 12.25 20.666 12.3027C20.4785 12.3535 17.1914 13.3535 17.1914 13.3535C17.1914 13.3535 17.293 13.5039 17.3613 13.6191C17.4277 13.7363 17.5273 13.916 17.5273 13.916ZM12.959 11.6309L13.1777 12.6484L13.543 12.5508L13.4434 11.5508L12.959 11.6309ZM14.3848 11.4766L14.2051 12.5898L14.5508 12.6484L14.8672 11.541L14.3848 11.4766ZM12.2578 12.1934L12.4453 12.9258L12.1484 13.0938L11.8223 12.4707L12.2578 12.1934ZM15.7285 11.9668L15.1445 12.9648L15.4121 13.1328L16.1035 12.2539L15.7285 11.9668Z" fill="#42A18E"/>
<path d="M17.5273 13.916L20.9199 12.4063C20.9199 12.4063 20.8574 12.25 20.666 12.3027C20.4785 12.3535 17.1914 13.3535 17.1914 13.3535C17.1914 13.3535 17.293 13.5039 17.3613 13.6191C17.4277 13.7363 17.5273 13.916 17.5273 13.916ZM12.959 11.6309L13.1777 12.6484L13.543 12.5508L13.4434 11.5508L12.959 11.6309ZM14.3848 11.4766L14.2051 12.5898L14.5508 12.6484L14.8672 11.541L14.3848 11.4766ZM12.2578 12.1934L12.4453 12.9258L12.1484 13.0938L11.8223 12.4707L12.2578 12.1934ZM15.7285 11.9668L15.1445 12.9648L15.4121 13.1328L16.1035 12.2539L15.7285 11.9668Z" fill="#42A18E"/>
</svg>
